HIERARCHY
ROOT mixamorig:Hips
{
	OFFSET 0.000000 201.639420 0.000000
	CHANNELS 6 Xposition Yposition Zposition Xrotation Yrotation Zrotation
	JOINT mixamorig:Spine
	{
		OFFSET 0.006200 19.524994 -2.481800
		CHANNELS 3 Xrotation Yrotation Zrotation
		JOINT mixamorig:Spine1
		{
			OFFSET -0.000900 22.835007 -2.825400
			CHANNELS 3 Xrotation Yrotation Zrotation
			JOINT mixamorig:Spine2
			{
				OFFSET -0.020600 26.552490 -3.193300
				CHANNELS 3 Xrotation Yrotation Zrotation
				JOINT mixamorig:Neck
				{
					OFFSET -0.060000 30.701813 1.352200
					CHANNELS 3 Xrotation Yrotation Zrotation
					JOINT mixamorig:Head
					{
						OFFSET -0.087200 22.547607 3.670900
						CHANNELS 3 Xrotation Yrotation Zrotation
						JOINT mixamorig:HeadTop_End
						{
							OFFSET -0.830600 40.355194 7.893500
							CHANNELS 3 Xrotation Yrotation Zrotation
							End Site
							{
								OFFSET 0.000000 30.592346 0.000000
							}
						}
						JOINT mixamorig:RightEye
						{
							OFFSET -6.302100 18.118591 16.197100
							CHANNELS 3 Xrotation Yrotation Zrotation
							End Site
							{
								OFFSET 0.000000 30.592346 0.000000
							}
						}
						JOINT mixamorig:LeftEye
						{
							OFFSET 6.741500 18.382690 16.401899
							CHANNELS 3 Xrotation Yrotation Zrotation
							End Site
							{
								OFFSET 0.000000 30.592346 0.000000
							}
						}
					}
				}
				JOINT mixamorig:LeftShoulder
				{
					OFFSET 11.924900 18.230499 1.425400
					CHANNELS 3 Xrotation Yrotation Zrotation
					JOINT mixamorig:LeftArm
					{
						OFFSET 25.435989 -0.697632 -5.229300
						CHANNELS 3 Xrotation Yrotation Zrotation
						JOINT mixamorig:LeftForeArm
						{
							OFFSET 54.684776 0.000000 0.000000
							CHANNELS 3 Xrotation Yrotation Zrotation
							JOINT mixamorig:LeftHand
							{
								OFFSET 55.098175 0.000000 0.000000
								CHANNELS 3 Xrotation Yrotation Zrotation
								JOINT mixamorig:LeftHandMiddle1
								{
									OFFSET 23.369751 0.000000 0.000000
									CHANNELS 3 Xrotation Yrotation Zrotation
									JOINT mixamorig:LeftHandMiddle2
									{
										OFFSET 6.378677 0.000000 0.000000
										CHANNELS 3 Xrotation Yrotation Zrotation
										JOINT mixamorig:LeftHandMiddle3
										{
											OFFSET 6.148331 0.000000 0.000000
											CHANNELS 3 Xrotation Yrotation Zrotation
											JOINT mixamorig:LeftHandMiddle4
											{
												OFFSET 6.582504 0.000000 0.000000
												CHANNELS 3 Xrotation Yrotation Zrotation
												End Site
												{
													OFFSET -1.168900 6.395691 1.028606
												}
											}
										}
									}
								}
								JOINT mixamorig:LeftHandThumb1
								{
									OFFSET 7.235672 -3.848206 5.434273
									CHANNELS 3 Xrotation Yrotation Zrotation
									JOINT mixamorig:LeftHandThumb2
									{
										OFFSET 6.568451 -3.792297 3.792300
										CHANNELS 3 Xrotation Yrotation Zrotation
										JOINT mixamorig:LeftHandThumb3
										{
											OFFSET 6.063080 -3.500519 3.500518
											CHANNELS 3 Xrotation Yrotation Zrotation
											JOINT mixamorig:LeftHandThumb4
											{
												OFFSET 4.793182 -2.767334 2.767349
												CHANNELS 3 Xrotation Yrotation Zrotation
												End Site
												{
													OFFSET 0.101639 6.054260 1.275483
												}
											}
										}
									}
								}
								JOINT mixamorig:LeftHandIndex1
								{
									OFFSET 23.101074 -0.309540 4.992809
									CHANNELS 3 Xrotation Yrotation Zrotation
									JOINT mixamorig:LeftHandIndex2
									{
										OFFSET 6.226883 0.000000 0.000000
										CHANNELS 3 Xrotation Yrotation Zrotation
										JOINT mixamorig:LeftHandIndex3
										{
											OFFSET 6.094330 0.000000 0.000000
											CHANNELS 3 Xrotation Yrotation Zrotation
											JOINT mixamorig:LeftHandIndex4
											{
												OFFSET 5.482605 0.000000 0.000000
												CHANNELS 3 Xrotation Yrotation Zrotation
												End Site
												{
													OFFSET -1.427902 5.233032 0.797164
												}
											}
										}
									}
								}
								JOINT mixamorig:LeftHandRing1
								{
									OFFSET 22.299240 0.021149 -3.964172
									CHANNELS 3 Xrotation Yrotation Zrotation
									JOINT mixamorig:LeftHandRing2
									{
										OFFSET 6.321869 0.000000 0.000000
										CHANNELS 3 Xrotation Yrotation Zrotation
										JOINT mixamorig:LeftHandRing3
										{
											OFFSET 5.899796 0.000000 0.000000
											CHANNELS 3 Xrotation Yrotation Zrotation
											JOINT mixamorig:LeftHandRing4
											{
												OFFSET 6.517899 0.000000 0.000000
												CHANNELS 3 Xrotation Yrotation Zrotation
												End Site
												{
													OFFSET -1.637299 6.232208 0.980890
												}
											}
										}
									}
								}
								JOINT mixamorig:LeftHandPinky1
								{
									OFFSET 20.463791 -0.302338 -8.562233
									CHANNELS 3 Xrotation Yrotation Zrotation
									JOINT mixamorig:LeftHandPinky2
									{
										OFFSET 6.908646 0.000000 0.000000
										CHANNELS 3 Xrotation Yrotation Zrotation
										JOINT mixamorig:LeftHandPinky3
										{
											OFFSET 4.622849 0.000000 0.000000
											CHANNELS 3 Xrotation Yrotation Zrotation
											JOINT mixamorig:LeftHandPinky4
											{
												OFFSET 5.216080 0.000000 0.000000
												CHANNELS 3 Xrotation Yrotation Zrotation
												End Site
												{
													OFFSET -0.606308 5.116241 0.814926
												}
											}
										}
									}
								}
							}
						}
					}
				}
				JOINT mixamorig:RightShoulder
				{
					OFFSET -12.001300 18.284088 1.348900
					CHANNELS 3 Xrotation Yrotation Zrotation
					JOINT mixamorig:RightArm
					{
						OFFSET -25.308500 -0.751312 -5.164599
						CHANNELS 3 Xrotation Yrotation Zrotation
						JOINT mixamorig:RightForeArm
						{
							OFFSET -54.684429 0.000000 0.000000
							CHANNELS 3 Xrotation Yrotation Zrotation
							JOINT mixamorig:RightHand
							{
								OFFSET -55.150291 0.000000 0.000000
								CHANNELS 3 Xrotation Yrotation Zrotation
								JOINT mixamorig:RightHandMiddle1
								{
									OFFSET -23.317566 0.000000 0.000000
									CHANNELS 3 Xrotation Yrotation Zrotation
									JOINT mixamorig:RightHandMiddle2
									{
										OFFSET -6.378403 0.000000 0.000000
										CHANNELS 3 Xrotation Yrotation Zrotation
										JOINT mixamorig:RightHandMiddle3
										{
											OFFSET -6.148193 0.000000 0.000000
											CHANNELS 3 Xrotation Yrotation Zrotation
											JOINT mixamorig:RightHandMiddle4
											{
												OFFSET -6.583389 0.000000 0.000000
												CHANNELS 3 Xrotation Yrotation Zrotation
												End Site
												{
													OFFSET 1.171692 6.395905 1.029786
												}
											}
										}
									}
								}
								JOINT mixamorig:RightHandThumb1
								{
									OFFSET -7.190521 -3.860474 5.435846
									CHANNELS 3 Xrotation Yrotation Zrotation
									JOINT mixamorig:RightHandThumb2
									{
										OFFSET -6.567429 -3.791718 3.791708
										CHANNELS 3 Xrotation Yrotation Zrotation
										JOINT mixamorig:RightHandThumb3
										{
											OFFSET -6.062469 -3.500153 3.500166
											CHANNELS 3 Xrotation Yrotation Zrotation
											JOINT mixamorig:RightHandThumb4
											{
												OFFSET -4.792618 -2.767029 2.767022
												CHANNELS 3 Xrotation Yrotation Zrotation
												End Site
												{
													OFFSET -0.100327 6.053253 1.276754
												}
											}
										}
									}
								}
								JOINT mixamorig:RightHandIndex1
								{
									OFFSET -23.048981 -0.310791 4.992554
									CHANNELS 3 Xrotation Yrotation Zrotation
									JOINT mixamorig:RightHandIndex2
									{
										OFFSET -6.227539 0.000000 0.000000
										CHANNELS 3 Xrotation Yrotation Zrotation
										JOINT mixamorig:RightHandIndex3
										{
											OFFSET -6.095047 0.000000 0.000000
											CHANNELS 3 Xrotation Yrotation Zrotation
											JOINT mixamorig:RightHandIndex4
											{
												OFFSET -5.484772 0.000000 0.000000
												CHANNELS 3 Xrotation Yrotation Zrotation
												End Site
												{
													OFFSET 1.420593 5.237305 0.797056
												}
											}
										}
									}
								}
								JOINT mixamorig:RightHandRing1
								{
									OFFSET -22.246323 0.020569 -3.963762
									CHANNELS 3 Xrotation Yrotation Zrotation
									JOINT mixamorig:RightHandRing2
									{
										OFFSET -6.322128 0.000000 0.000000
										CHANNELS 3 Xrotation Yrotation Zrotation
										JOINT mixamorig:RightHandRing3
										{
											OFFSET -5.900024 0.000000 0.000000
											CHANNELS 3 Xrotation Yrotation Zrotation
											JOINT mixamorig:RightHandRing4
											{
												OFFSET -6.518356 0.000000 0.000000
												CHANNELS 3 Xrotation Yrotation Zrotation
												End Site
												{
													OFFSET 1.636398 6.232697 0.982186
												}
											}
										}
									}
								}
								JOINT mixamorig:RightHandPinky1
								{
									OFFSET -20.411011 -0.303314 -8.561701
									CHANNELS 3 Xrotation Yrotation Zrotation
									JOINT mixamorig:RightHandPinky2
									{
										OFFSET -6.907349 0.000000 0.000000
										CHANNELS 3 Xrotation Yrotation Zrotation
										JOINT mixamorig:RightHandPinky3
										{
											OFFSET -4.623840 0.000000 0.000000
											CHANNELS 3 Xrotation Yrotation Zrotation
											JOINT mixamorig:RightHandPinky4
											{
												OFFSET -5.218353 0.000000 0.000000
												CHANNELS 3 Xrotation Yrotation Zrotation
												End Site
												{
													OFFSET 0.602097 5.118835 0.816273
												}
											}
										}
									}
								}
							}
						}
					}
				}
			}
		}
	}
	JOINT mixamorig:LeftUpLeg
	{
		OFFSET 18.168400 -13.561905 -0.039000
		CHANNELS 3 Xrotation Yrotation Zrotation
		JOINT mixamorig:LeftLeg
		{
			OFFSET 0.577358 -80.825211 -3.695000
			CHANNELS 3 Xrotation Yrotation Zrotation
			JOINT mixamorig:LeftFoot
			{
				OFFSET -0.577356 -83.370262 -6.520700
				CHANNELS 3 Xrotation Yrotation Zrotation
				JOINT mixamorig:LeftToeBase
				{
					OFFSET 0.750401 -20.798306 25.135401
					CHANNELS 3 Xrotation Yrotation Zrotation
					JOINT mixamorig:LeftToe_End
					{
						OFFSET -0.000500 0.001200 19.917799
						CHANNELS 3 Xrotation Yrotation Zrotation
						End Site
						{
							OFFSET 0.000000 19.917805 0.000000
						}
					}
				}
			}
		}
	}
	JOINT mixamorig:RightUpLeg
	{
		OFFSET -18.162500 -13.585098 -0.041000
		CHANNELS 3 Xrotation Yrotation Zrotation
		JOINT mixamorig:RightLeg
		{
			OFFSET -0.595024 -80.945297 -3.631900
			CHANNELS 3 Xrotation Yrotation Zrotation
			JOINT mixamorig:RightFoot
			{
				OFFSET 0.595024 -83.218193 -6.561200
				CHANNELS 3 Xrotation Yrotation Zrotation
				JOINT mixamorig:RightToeBase
				{
					OFFSET -0.753601 -20.807106 25.115000
					CHANNELS 3 Xrotation Yrotation Zrotation
					JOINT mixamorig:RightToe_End
					{
						OFFSET 0.000299 0.001700 19.918200
						CHANNELS 3 Xrotation Yrotation Zrotation
						End Site
						{
							OFFSET 0.000000 19.918203 0.000000
						}
					}
				}
			}
		}
	}
}
MOTION
Frames: 4
Frame Time: 0.033333
-24.765404 146.721054 126.682182 -18.056124 -23.548966 4.774886 0.057039 3.057755 4.905846 0.680018 9.809538 -1.870346 0.406400 9.826637 -1.880563 5.777417 0.760032 -4.367175 -40.555805 17.838005 -17.571729 0.000000 -0.000000 0.000001 0.000000 -0.000000 0.000001 0.000000 -0.000000 0.000001 0.230545 3.757166 -3.729050 -38.214068 50.437047 -15.045571 0.000029 -29.038399 0.000014 8.108216 15.358783 8.349585 0.311082 2.050106 -17.254818 0.253880 1.856049 -15.576421 0.063617 0.935702 -7.778155 -0.000000 -0.000001 0.000001 -0.160596 20.694838 8.081823 6.228776 18.389477 0.293557 0.563187 6.791820 2.546185 0.000001 0.000000 -0.000001 0.311654 2.051945 -17.270815 0.253363 1.854188 -15.560429 0.063607 0.935705 -7.778165 0.000000 -0.000000 -0.000001 0.311658 2.051953 -17.270816 0.253360 1.854193 -15.560412 0.063614 0.935708 -7.778174 -0.000001 0.000000 -0.000001 1.503547 5.928049 -16.843385 0.251872 -2.202355 -16.052635 0.063610 0.935713 -7.778177 -0.000001 -0.000001 -0.000000 0.769255 -2.049054 9.984537 26.322463 -41.656364 57.822339 -0.000000 62.860908 0.000013 3.894094 -13.888471 5.375261 0.126410 -1.322467 10.919574 0.183581 -1.590336 13.168676 0.046039 -0.800448 6.583081 0.000001 -0.000001 -0.000000 -11.411542 -14.946049 -15.736694 3.882697 -18.267819 3.624565 -1.806711 -4.698075 -0.253612 0.000000 -0.000000 0.000001 0.126404 -1.322472 10.919595 0.183583 -1.590329 13.168676 0.046035 -0.800443 6.583099 -0.000003 0.000000 0.000001 0.126406 -1.322471 10.919576 0.183580 -1.590335 13.168689 0.046034 -0.800440 6.583086 -0.000002 0.000001 0.000000 0.126407 -1.322467 10.919588 0.183578 -1.590334 13.168686 0.046036 -0.800448 6.583092 0.000000 0.000002 -0.000000 -49.159747 22.253219 55.748182 74.865772 -3.666918 -0.350097 -4.354183 0.411257 -5.718521 -5.852101 -0.000021 0.000003 -0.000000 0.000003 0.000001 -4.671638 14.079349 -27.100276 94.660377 -1.794252 -0.389498 2.435640 0.552654 -5.991665 -51.697753 -5.827815 19.160545 -0.000000 0.000000 -0.000001 
-24.947847 136.592148 131.969482 -16.624971 -21.716785 5.441794 0.120199 2.636773 4.439795 0.843834 8.652295 -2.854973 0.628413 8.663679 -2.877290 5.885781 0.594387 -4.042346 -40.206933 16.880160 -17.581880 -0.000002 0.000001 -0.000000 -0.000002 0.000001 -0.000000 -0.000002 0.000001 -0.000000 0.205972 3.794200 -3.436813 -40.558787 47.492419 -12.420066 -0.000003 -28.687536 -0.000002 6.568376 14.457531 9.127144 0.311087 2.050098 -17.254811 0.253881 1.856051 -15.576421 0.063617 0.935704 -7.778154 0.000002 0.000001 0.000002 -0.160567 20.694800 8.081802 6.228779 18.389478 0.293558 0.563188 6.791818 2.546182 -0.000001 0.000001 -0.000001 0.311667 2.051937 -17.270811 0.253362 1.854185 -15.560431 0.063605 0.935705 -7.778166 0.000001 -0.000001 -0.000002 0.311661 2.051942 -17.270810 0.253365 1.854191 -15.560414 0.063608 0.935702 -7.778179 -0.000002 -0.000003 0.000001 1.503561 5.928034 -16.843371 0.251870 -2.202353 -16.052637 0.063607 0.935707 -7.778176 -0.000006 0.000000 -0.000002 0.795146 -1.855554 10.027770 29.417300 -41.020552 62.206569 0.000058 69.067925 -0.000054 -1.136685 -13.472062 2.339037 0.126398 -1.322460 10.919574 0.183578 -1.590337 13.168677 0.046039 -0.800446 6.583083 0.000001 0.000000 0.000001 -11.411539 -14.946047 -15.736693 3.882698 -18.267819 3.624569 -1.806706 -4.698077 -0.253612 0.000003 0.000000 0.000002 0.126397 -1.322465 10.919578 0.183585 -1.590332 13.168674 0.046034 -0.800446 6.583097 0.000001 -0.000000 0.000000 0.126399 -1.322462 10.919561 0.183580 -1.590334 13.168687 0.046034 -0.800443 6.583085 -0.000000 -0.000000 0.000000 0.126397 -1.322462 10.919579 0.183583 -1.590338 13.168686 0.046035 -0.800449 6.583093 -0.000001 -0.000003 -0.000001 -54.852450 16.336049 59.664018 85.931880 -2.310238 -0.253237 -6.999802 0.647705 -3.925928 -6.512586 0.000008 -0.000004 -0.000000 -0.000000 -0.000001 -8.788358 18.327433 -24.860698 101.109264 -0.735518 -0.344983 3.826328 0.413919 -4.971993 -65.488277 -7.365934 18.119136 0.000000 -0.000001 -0.000000 
-26.166344 126.717117 136.454865 -14.715644 -20.438928 6.713218 0.197542 2.373926 3.601887 1.028375 7.611011 -3.977413 0.866920 7.615281 -4.005145 5.960783 0.434628 -3.927159 -39.640229 16.201236 -18.031293 -0.000000 0.000001 0.000000 -0.000000 0.000001 0.000000 -0.000000 0.000001 0.000000 0.195807 3.934559 -3.578885 -43.084437 43.415496 -10.316812 0.000009 -27.449371 0.000009 3.825489 13.082228 10.550992 0.311081 2.050110 -17.254827 0.253880 1.856047 -15.576422 0.063612 0.935709 -7.778155 0.000005 0.000003 -0.000003 -0.160580 20.694807 8.081813 6.228776 18.389477 0.293562 0.563187 6.791821 2.546185 0.000002 -0.000001 0.000003 0.311658 2.051949 -17.270820 0.253367 1.854189 -15.560429 0.063612 0.935703 -7.778167 -0.000000 0.000003 -0.000002 0.311660 2.051957 -17.270820 0.253362 1.854191 -15.560419 0.063611 0.935705 -7.778174 -0.000002 0.000003 0.000001 1.503533 5.928048 -16.843380 0.251870 -2.202358 -16.052640 0.063599 0.935709 -7.778180 -0.000006 -0.000002 0.000003 0.806030 -1.584019 9.906603 32.821873 -40.075309 68.807729 0.000100 74.921738 -0.000102 -6.340411 -12.267663 -0.642183 0.126403 -1.322473 10.919589 0.183579 -1.590338 13.168678 0.046041 -0.800450 6.583084 0.000000 -0.000000 -0.000001 -11.411541 -14.946057 -15.736698 3.882706 -18.267817 3.624565 -1.806708 -4.698078 -0.253612 0.000000 0.000001 -0.000002 0.126407 -1.322467 10.919579 0.183584 -1.590331 13.168676 0.046033 -0.800448 6.583099 0.000001 0.000003 -0.000001 0.126412 -1.322465 10.919569 0.183587 -1.590334 13.168688 0.046034 -0.800437 6.583087 0.000000 0.000001 0.000001 0.126404 -1.322464 10.919584 0.183579 -1.590333 13.168684 0.046036 -0.800443 6.583094 -0.000001 0.000002 0.000000 -59.317372 10.897344 62.486088 94.635973 -0.852971 -0.164368 -8.529050 0.512611 -2.903910 -6.661217 -0.000004 0.000009 -0.000000 0.000000 -0.000002 -13.153674 22.380249 -22.907348 108.280218 -4.020345 -0.641880 1.987059 0.302910 -2.490585 -77.305092 -4.842688 11.467976 -0.000000 -0.000001 0.000000 
-28.427450 117.572632 139.936218 -12.306827 -19.723353 8.260664 0.321947 2.235292 2.605866 1.310271 6.834735 -5.009655 1.192934 6.840262 -5.032683 5.960528 0.265942 -4.044256 -38.955830 15.816983 -19.058432 -0.000001 -0.000001 -0.000001 -0.000001 -0.000001 -0.000001 -0.000001 -0.000001 -0.000001 0.212577 4.140496 -4.253006 -45.971439 38.773580 -9.476448 0.000011 -25.974629 0.000012 0.297296 11.666609 12.453884 0.311078 2.050102 -17.254808 0.253880 1.856045 -15.576422 0.063614 0.935706 -7.778157 -0.000001 0.000003 -0.000002 -0.160590 20.694828 8.081826 6.228780 18.389475 0.293556 0.563186 6.791821 2.546188 0.000001 0.000001 -0.000002 0.311657 2.051952 -17.270808 0.253368 1.854191 -15.560433 0.063609 0.935709 -7.778162 -0.000000 -0.000002 0.000000 0.311656 2.051956 -17.270811 0.253358 1.854188 -15.560411 0.063612 0.935706 -7.778174 -0.000004 0.000002 -0.000002 1.503549 5.928041 -16.843366 0.251871 -2.202351 -16.052638 0.063608 0.935712 -7.778177 -0.000002 -0.000002 0.000003 0.801322 -1.222834 9.671486 35.169146 -38.670041 76.397298 0.000012 78.693581 -0.000003 -9.397259 -10.152927 -1.529620 0.126382 -1.322460 10.919588 0.183578 -1.590336 13.168677 0.046035 -0.800447 6.583084 0.000002 0.000001 0.000001 -11.411543 -14.946054 -15.736688 3.882703 -18.267817 3.624566 -1.806708 -4.698078 -0.253611 -0.000001 -0.000001 0.000000 0.126394 -1.322460 10.919581 0.183583 -1.590328 13.168680 0.046035 -0.800446 6.583095 0.000001 -0.000001 -0.000001 0.126384 -1.322471 10.919591 0.183578 -1.590334 13.168684 0.046034 -0.800440 6.583085 0.000000 0.000001 0.000000 0.126391 -1.322460 10.919592 0.183580 -1.590329 13.168686 0.046037 -0.800447 6.583092 0.000000 0.000001 0.000001 -63.051928 5.817858 64.571440 101.064096 0.135212 -0.099218 -8.917305 0.405687 -2.344149 -6.278988 -0.000004 -0.000010 -0.000001 -0.000002 -0.000002 -16.886823 25.608423 -21.083728 115.646127 -12.034462 -1.174700 -1.257750 0.113784 0.649287 -84.293776 -3.408077 -0.868491 0.000000 -0.000000 -0.000000 
